# xmcd CD database file
#
# Track frame offsets:
#	150
#	23327
#	45612
#
# Disc length: 915 seconds
#
# Revision: 0
# Processed by: cddbd v1.5.1PL2 Copyright (c) Steve Scherf et al.
# Submitted via: CDex 1.51
#
DISCID=15039103
DTITLE=藤重政孝 - 20th Century Boy
DYEAR=1998
DGENRE=Rock
TTITLE0=20th Century Boy
TTITLE1=Song for you
TTITLE2=20th Century Boy (instrumental)
EXTD=YEAR: 1998
EXTT0=
EXTT1=
EXTT2=
PLAYORDER=
